<svg id="Layer_1" data-name="Layer 1" xmlns="http://www.w3.org/2000/svg" viewBox="0 0 500 500"><defs><style>.cls-1{fill:#038035;}.cls-2{fill:#fcfefc;}.cls-3{fill:#fbfdfa;}.cls-4{fill:#fdfefc;}.cls-5{fill:#030503;}.cls-6{fill:#020303;}.cls-7{fill:#030604;}.cls-8{fill:#040804;}.cls-9{fill:#aad498;}.cls-10{fill:#79dc4f;}.cls-11{fill:#91d177;}.cls-12{fill:#8fd670;}.cls-13{fill:#7ed857;}.cls-14{fill:#82d75e;}</style></defs><path class="cls-1" d="M547.64,200.44V688.58h-488l-.14-14.76c3.49-.05,7-.16,10.47-.16q228.27,0,456.54.11c5.11,0,6.35-1.33,6.35-6.35q-.21-228.33-.11-456.66c0-3.49.13-7,.21-10.47Z" transform="translate(-47.64 -188.58)"/><path class="cls-2" d="M547.64,200.44l-14.72-.15V189.81H49.09v484H59.47l.14,14.76h-12v-500h500Z" transform="translate(-47.64 -188.58)"/><path class="cls-3" d="M221.81,397.06c-12.53,0-25-.05-37.43,0-2.92,0-3-2.12-3.5-4-1.92-7.19-3.77-14.4-5.75-22-14.32,0-28.59,0-42.87,0-2.56,0-2.9,1.67-3.36,3.47-1.57,6.09-3.26,12.15-4.68,18.28-.7,3.06-2,4.33-5.39,4.26-11.94-.22-23.88-.08-35.59-.08-1.12-2.18-.29-3.7.21-5.26Q103,331.47,122.61,271.13c.36-1.1.88-2.15,1.26-3.24,3.61-10.38,3.6-10.38,14.41-10.38,11.3,0,22.61.11,33.92-.07,3.28-.05,5.12.74,6.22,4.13,9.2,28.39,18.56,56.74,27.89,85.09,4.92,15,9.9,29.9,14.83,44.86C221.65,393.07,222.57,394.56,221.81,397.06Zm-69-113.35c-4.79,18.74-10.34,37.06-14.59,56.12h28.87C162.2,320.71,157.5,302.21,152.79,283.71Z" transform="translate(-47.64 -188.58)"/><path class="cls-3" d="M352.16,290.07c-6.4-3.52-12.85-2.58-19.1.2a58.43,58.43,0,0,0-14,9.33c-2.75,2.35-4.58,2.44-6.95-.53-4.75-5.95-9.75-11.72-14.81-17.43-1.67-1.89-2.53-3.21-.23-5.32,19.76-18.13,42.7-24.45,68.6-17.42,23.72,6.44,32.8,26.1,26.82,49.3-3.44,13.32-12.07,23.44-21.75,32.68-7.66,7.33-15.58,14.4-23.36,21.6a19.88,19.88,0,0,0-1.82,2.25c1.39,1.85,3.2,1.16,4.73,1.17q21.18.06,42.37,0c2,0,4.23-.55,4.22,2.62v28.19H296.3c0-7.81-.08-15.71.05-23.61,0-1.74,1.8-2.68,2.94-3.86C314,354,329.38,339.4,343.48,323.57c1.07-1.2,2.58-2.17,2.72-4a10.9,10.9,0,0,0,6-6.91,27.28,27.28,0,0,0,2.66-3.54C358.78,301.85,357.61,293.92,352.16,290.07Z" transform="translate(-47.64 -188.58)"/><path class="cls-4" d="M274.2,397.05l-35.78-.1q-.1-66.85-.23-133.73c0-3.46,1.39-4.71,4.75-4.68,9,.1,18,.22,26.93-.06,4.28-.13,5.34,1.52,5.33,5.52q-.18,63.87-.12,127.75C275.08,393.55,275.37,395.43,274.2,397.05Z" transform="translate(-47.64 -188.58)"/><path class="cls-5" d="M402.11,551.32c-.85-7.54-.7-14.72,3.67-21.58,2.71-4.26,6.4-7.25,10.62-8.35,16.82-4.38,33.5-3.64,49.55,3.72a10.15,10.15,0,0,1,1.7,1.3c-1.34,6.54-5.77,11.64-7.62,18.2-5.63-1.89-10.8-4-16.26-5.19a38.7,38.7,0,0,0-8.91-.75c-2.17,0-3.77.65-4.46,3-.76,2.62.87,3.7,2.66,4.53,4.21,1.94,8.52,3.69,12.77,5.54,2.44,1.06,4.92,2,7.28,3.23,11.72,6,16.61,14.72,15.2,27-1.44,12.51-7.81,19.78-20.77,22.92s-26,2.24-39-.77c-2.09-.48-4.17-1-6.26-1.55-1.29-7.83,0-15.71-.74-23.78,5,1.22,9.33,3.71,14.28,4.14,6.66,2,13.4,3.21,20.38,1.91,2.06-.39,4-1.1,4.36-3.38s-1.11-3.74-3-4.65c-2.95-1.43-6-2.67-9-4l-10.5-4.39,0,0C410.94,564.51,404.7,559.62,402.11,551.32Z" transform="translate(-47.64 -188.58)"/><path class="cls-6" d="M380.68,519.81c2.24,1.09,1.44,3.17,1.44,4.85.06,28.92.17,57.83,0,86.74-.1,20.41-12.54,31.9-33,30.72-4.46-.25-9-.33-13.69-1.87V617.91c2.72.27,5.43.68,8.16.79,4.4.18,7.15-2.07,8.44-6.23a29.15,29.15,0,0,0,.95-8.87q0-38.88,0-77.76c0-2,.23-4,.35-6Z" transform="translate(-47.64 -188.58)"/><path class="cls-7" d="M321.31,578.44c9.82.27,15,5.43,14.79,14.83-.16,8.87-6.18,14-15.92,13.8-11.34-.17-16.23-7.68-15.84-14.72C304.84,583.28,310.57,578.16,321.31,578.44Z" transform="translate(-47.64 -188.58)"/><path class="cls-8" d="M381.39,506.72c-4.43,6.4-18.26,6.16-23.57,3.12-5.47-3.14-5.78-8.45-5.77-13.88,1.52-6.36,5.89-9.32,12.07-9.86,5.49-.48,10.92-.19,15.74,3l0,0C384.16,494.66,384,500.58,381.39,506.72Z" transform="translate(-47.64 -188.58)"/><path class="cls-9" d="M274.2,397.05c1.17-1.62.88-3.5.88-5.3q0-63.88.12-127.75c0-4-1.05-5.65-5.33-5.52-9,.28-18,.16-26.93.06-3.36,0-4.76,1.22-4.75,4.68q.18,66.87.23,133.73c-2.53-5.8-1.7-12.1-1.76-18-.43-38.57-.22-77.15-.35-115.73,0-4.39,1.72-5.89,5.92-5.83q14.72.22,29.42,0c3.51-.06,4.66,1.29,4.66,4.67q-.1,65.6-.09,131.19C276.22,394.76,276.69,396.74,274.2,397.05Z" transform="translate(-47.64 -188.58)"/><path class="cls-10" d="M278.72,396V258.51c4.23.9,4,3.8,2.9,5.76-1.63,2.87-1.43,5.73-1.43,8.68q0,58.8,0,117.62C280.15,392.43,280.59,394.41,278.72,396Z" transform="translate(-47.64 -188.58)"/><path class="cls-11" d="M352.16,290.07c5.45,3.85,6.62,11.78,2.72,19a27.28,27.28,0,0,1-2.66,3.54c-.08-.49-.16-1-.25-1.47-.24-3.17,2.32-5.52,2.24-8.84A35.36,35.36,0,0,0,352.16,290.07Z" transform="translate(-47.64 -188.58)"/><path class="cls-12" d="M352,311.17c.09.49.17,1,.25,1.47a10.9,10.9,0,0,1-6,6.91C346.31,315.5,346.56,311.56,352,311.17Z" transform="translate(-47.64 -188.58)"/><path class="cls-13" d="M379.86,489.12c-4.82-3.21-10.25-3.5-15.74-3-6.18.54-10.55,3.5-12.07,9.86-.08-8.15,2.16-10.15,10-11.19,4.44-.59,8.54-2.07,13.06.05C377.35,485.86,379.34,486.5,379.86,489.12Z" transform="translate(-47.64 -188.58)"/><path class="cls-13" d="M381.39,506.72c2.63-6.14,2.77-12.06-1.57-17.58,1.79-.88,3.6-.59,3.84,1.42a57.39,57.39,0,0,1,0,14.64C383.48,506.33,382.4,506.59,381.39,506.72Z" transform="translate(-47.64 -188.58)"/><path class="cls-13" d="M380.68,519.81l-27.33.08c3.57-2,7.46-.94,11.16-.91C369.9,519,375.39,517.9,380.68,519.81Z" transform="translate(-47.64 -188.58)"/><path class="cls-13" d="M59.47,673.82H49.09v-484H532.92v10.48c-.07,3.49-.2,7-.2,10.47q0,228.33.11,456.66c0,5-1.24,6.36-6.35,6.35q-228.27-.21-456.54-.11C66.45,673.66,63,673.77,59.47,673.82ZM418.11,568.48c2.29,4.37,6.41,4.34,10.5,4.39,3,1.31,6.06,2.55,9,4,1.85.91,3.36,2.39,3,4.65s-2.3,3-4.36,3.38c-7,1.3-13.72.11-20.38-1.91-2.76-2.67-5.73-5.28-2.64-9.56-2.62-.85-3.08.5-3.26,2.15s-.28,3.24-2.43,2.9a3.08,3.08,0,0,1-2.81-3c0-.84,1.18-1.83-1.05-2.69a8.34,8.34,0,0,0-3.51,7.22,126.85,126.85,0,0,1-.18,20.63c-.13,1.68.5,2.58,2.34,2,2.09.52,4.17,1.07,6.26,1.55,12.94,3,26,3.92,39,.77s19.33-10.41,20.77-22.92c1.41-12.29-3.48-21-15.2-27-2.36-1.2-4.84-2.17-7.28-3.23-4.25-1.85-8.56-3.6-12.77-5.54-1.79-.83-3.42-1.91-2.66-4.53.69-2.38,2.29-3,4.46-3a38.7,38.7,0,0,1,8.91.75c5.46,1.2,10.63,3.3,16.26,5.19,1.85-6.56,6.28-11.66,7.62-18.2a10.15,10.15,0,0,0-1.7-1.3c-16.05-7.36-32.73-8.1-49.55-3.72-4.22,1.1-7.91,4.09-10.62,8.35-4.37,6.86-4.52,14-3.67,21.58-1.78,8,4.39,11.4,9.33,15,1.56,1.15,3.35,5.26,6.7,2.14ZM352,311.17c-5.41.39-5.66,4.33-5.77,8.38-.14,1.85-1.65,2.82-2.72,4C329.38,339.4,314,354,299.29,369.22c-1.14,1.18-2.91,2.12-2.94,3.86-.13,7.9-.05,15.8-.05,23.61H396.85V368.5c0-3.17-2.24-2.62-4.22-2.62q-21.18,0-42.37,0c-1.53,0-3.34.68-4.73-1.17a19.88,19.88,0,0,1,1.82-2.25c7.78-7.2,15.7-14.27,23.36-21.6,9.68-9.24,18.31-19.36,21.75-32.68,6-23.2-3.1-42.86-26.82-49.3-25.9-7-48.84-.71-68.6,17.42-2.3,2.11-1.44,3.43.23,5.32,5.06,5.71,10.06,11.48,14.81,17.43,2.37,3,4.2,2.88,6.95.53a58.43,58.43,0,0,1,14-9.33c6.25-2.78,12.7-3.72,19.1-.2a35.36,35.36,0,0,1,2,12.26C354.29,305.65,351.73,308,352,311.17Zm27.85,178,0,0c-.52-2.62-2.51-3.26-4.71-4.3-4.52-2.12-8.62-.64-13.06-.05-7.88,1-10.12,3-10,11.19,0,5.43.3,10.74,5.77,13.88,5.31,3,19.14,3.28,23.57-3.12,1-.13,2.09-.39,2.25-1.52a57.39,57.39,0,0,0,0-14.64C383.42,488.55,381.61,488.26,379.82,489.14Zm-26.47,30.75c-.12,2-.35,4-.35,6q0,38.88,0,77.76a29.15,29.15,0,0,1-.95,8.87c-1.29,4.16-4,6.41-8.44,6.23-2.73-.11-5.44-.52-8.16-.79v22.34c4.71,1.54,9.23,1.62,13.69,1.87,20.48,1.18,32.92-10.31,33-30.72.14-28.91,0-57.82,0-86.74,0-1.68.8-3.76-1.44-4.85-5.29-1.91-10.78-.78-16.17-.83C360.81,519,356.92,517.86,353.35,519.89ZM274.2,397.05c2.49-.31,2-2.29,2-3.84q.06-65.59.09-131.19c0-3.38-1.15-4.73-4.66-4.67q-14.7.25-29.42,0c-4.2-.06-5.93,1.44-5.92,5.83.13,38.58-.08,77.16.35,115.73.06,5.92-.77,12.22,1.76,18Zm-52.39,0c.76-2.5-.16-4-.67-5.54-4.93-15-9.91-29.9-14.83-44.86-9.33-28.35-18.69-56.7-27.89-85.09-1.1-3.39-2.94-4.18-6.22-4.13-11.31.18-22.62.07-33.92.07-10.81,0-10.8,0-14.41,10.38-.38,1.09-.9,2.14-1.26,3.24Q103,331.46,83.45,391.8c-.5,1.56-1.33,3.08-.21,5.26,11.71,0,23.65-.14,35.59.08,3.38.07,4.69-1.2,5.39-4.26,1.42-6.13,3.11-12.19,4.68-18.28.46-1.8.8-3.48,3.36-3.47,14.28.07,28.55,0,42.87,0,2,7.57,3.83,14.78,5.75,22,.49,1.84.58,4,3.5,4C196.83,397,209.28,397.06,221.81,397.06Zm99.5,181.38c-10.74-.28-16.47,4.84-17,13.91-.39,7,4.5,14.55,15.84,14.72,9.74.15,15.76-4.93,15.92-13.8C336.27,583.87,331.13,578.71,321.31,578.44ZM278.72,396c1.87-1.63,1.43-3.61,1.43-5.47q0-58.81,0-117.62c0-2.95-.2-5.81,1.43-8.68,1.12-2,1.33-4.86-2.9-5.76Z" transform="translate(-47.64 -188.58)"/><path class="cls-13" d="M415.84,583c-4.95-.43-9.32-2.92-14.28-4.14.73,8.07-.55,15.95.74,23.78-1.84.6-2.47-.3-2.34-2a126.85,126.85,0,0,0,.18-20.63,8.34,8.34,0,0,1,3.51-7.22c2.23.86,1,1.85,1.05,2.69a3.08,3.08,0,0,0,2.81,3c2.15.34,2.27-1.37,2.43-2.9s.64-3,3.26-2.15C410.11,577.69,413.08,580.3,415.84,583Z" transform="translate(-47.64 -188.58)"/><path class="cls-13" d="M402.11,551.32c2.59,8.3,8.83,13.19,16,17.19-3.35,3.12-5.14-1-6.7-2.14C406.5,562.72,400.33,559.32,402.11,551.32Z" transform="translate(-47.64 -188.58)"/><path class="cls-13" d="M418.11,568.48l10.5,4.39C424.52,572.82,420.4,572.85,418.11,568.48Z" transform="translate(-47.64 -188.58)"/><path class="cls-14" d="M152.79,283.71c4.71,18.5,9.41,37,14.28,56.12H138.2C142.45,320.77,148,302.45,152.79,283.71Z" transform="translate(-47.64 -188.58)"/></svg>